<?xml version="1.0" encoding="UTF-8"?>
<svg xmlns="http://www.w3.org/2000/svg" viewBox="0 0 1000 790" font-family="Segoe UI, Arial, sans-serif">
  <defs>
    <marker id="arrow" viewBox="0 0 10 10" refX="9" refY="5" markerWidth="10" markerHeight="10" orient="auto-start-auto">
      <path d="M 0 0 L 10 5 L 0 10 z" fill="#2E86C1"/>
    </marker>
    <filter id="shadow" x="-4%" y="-4%" width="108%" height="112%">
      <feDropShadow dx="1" dy="2" stdDeviation="2" flood-opacity="0.1"/>
    </filter>
  </defs>

  <rect width="1000" height="790" rx="12" fill="#F7F9FB"/>

  <!-- Title -->
  <rect x="0" y="0" width="1000" height="68" rx="12" fill="#1B4F72"/>
  <rect x="0" y="34" width="1000" height="34" fill="#1B4F72"/>
  <text x="500" y="30" text-anchor="middle" fill="#fff" font-size="22" font-weight="700">SmartClaims Agent &#x2014; Complete Lab Journey</text>
  <text x="500" y="55" text-anchor="middle" fill="#AED6F1" font-size="13">Microsoft Foundry Agent Service | 11 Labs | Insurance AI</text>

  <!-- Lab Progression Flow -->
  <text x="500" y="100" text-anchor="middle" fill="#1B4F72" font-size="15" font-weight="700">Lab Progression</text>

  <!-- ===== PHASE 1: Foundation (Labs 0-2) ===== -->
  <rect x="750" y="116" width="210" height="44" rx="6" fill="#EBF5FB" stroke="#2E86C1" stroke-width="1" stroke-dasharray="4"/>
  <text x="855" y="143" text-anchor="middle" fill="#2E86C1" font-size="10" font-weight="600">Phase 1: Foundation</text>

  <rect x="40" y="116" width="150" height="44" rx="7" fill="#EBF5FB" stroke="#2E86C1" stroke-width="1.2"/>
  <text x="115" y="133" text-anchor="middle" fill="#1B4F72" font-size="10" font-weight="700">Lab 0: Test Connection</text>
  <text x="115" y="150" text-anchor="middle" fill="#5D6D7E" font-size="8">Verify .env + credentials</text>

  <line x1="190" y1="138" x2="215" y2="138" stroke="#2E86C1" stroke-width="2" marker-end="url(#arrow)"/>

  <rect x="215" y="116" width="150" height="44" rx="7" fill="#EBF5FB" stroke="#2E86C1" stroke-width="1.2"/>
  <text x="290" y="133" text-anchor="middle" fill="#1B4F72" font-size="10" font-weight="700">Lab 1: Hello Agent</text>
  <text x="290" y="150" text-anchor="middle" fill="#5D6D7E" font-size="8">Create + converse</text>

  <line x1="365" y1="138" x2="390" y2="138" stroke="#2E86C1" stroke-width="2" marker-end="url(#arrow)"/>

  <rect x="390" y="116" width="150" height="44" rx="7" fill="#EBF5FB" stroke="#2E86C1" stroke-width="1.2"/>
  <text x="465" y="133" text-anchor="middle" fill="#1B4F72" font-size="10" font-weight="700">Lab 2: Generate Data</text>
  <text x="465" y="150" text-anchor="middle" fill="#5D6D7E" font-size="8">CSV + policy docs</text>

  <!-- ===== PHASE 2: Core Tools (Labs 3-5) ===== -->
  <rect x="750" y="185" width="210" height="112" rx="6" fill="#D4EFDF" stroke="#27AE60" stroke-width="1" stroke-dasharray="4"/>
  <text x="855" y="245" text-anchor="middle" fill="#1E8449" font-size="10" font-weight="600">Phase 2: Core Tools</text>

  <!-- Branch from Lab 2 -->
  <line x1="465" y1="160" x2="290" y2="190" stroke="#2E86C1" stroke-width="2" marker-end="url(#arrow)"/>
  <line x1="465" y1="160" x2="600" y2="190" stroke="#2E86C1" stroke-width="2" marker-end="url(#arrow)"/>

  <rect x="215" y="190" width="150" height="44" rx="7" fill="#D5F5E3" stroke="#27AE60" stroke-width="1.2"/>
  <text x="290" y="207" text-anchor="middle" fill="#1E8449" font-size="10" font-weight="700">Lab 3: File Search</text>
  <text x="290" y="224" text-anchor="middle" fill="#5D6D7E" font-size="8">RAG + vector store</text>

  <rect x="525" y="190" width="150" height="44" rx="7" fill="#E8DAEF" stroke="#8E44AD" stroke-width="1.2"/>
  <text x="600" y="207" text-anchor="middle" fill="#6C3483" font-size="10" font-weight="700">Lab 4: Code Interpreter</text>
  <text x="600" y="224" text-anchor="middle" fill="#5D6D7E" font-size="8">Sandbox Python analytics</text>

  <!-- Merge to Lab 5 -->
  <line x1="290" y1="234" x2="445" y2="258" stroke="#2E86C1" stroke-width="2" marker-end="url(#arrow)"/>
  <line x1="600" y1="234" x2="445" y2="258" stroke="#2E86C1" stroke-width="2" marker-end="url(#arrow)"/>

  <rect x="370" y="258" width="150" height="44" rx="7" fill="#FDEBD0" stroke="#E67E22" stroke-width="1.2"/>
  <text x="445" y="275" text-anchor="middle" fill="#CA6F1E" font-size="10" font-weight="700">Lab 5: Function Tools</text>
  <text x="445" y="292" text-anchor="middle" fill="#5D6D7E" font-size="8">Custom business logic</text>

  <!-- ===== PHASE 3: Combine + Extend (Labs 6-7) ===== -->
  <rect x="750" y="324" width="210" height="112" rx="6" fill="#FEF5E7" stroke="#E67E22" stroke-width="1" stroke-dasharray="4"/>
  <text x="855" y="384" text-anchor="middle" fill="#CA6F1E" font-size="10" font-weight="600">Phase 3: Combine + Extend</text>

  <line x1="445" y1="302" x2="445" y2="328" stroke="#2E86C1" stroke-width="2" marker-end="url(#arrow)"/>

  <rect x="370" y="328" width="150" height="44" rx="7" fill="#FDEBD0" stroke="#E67E22" stroke-width="1.5" filter="url(#shadow)"/>
  <text x="445" y="345" text-anchor="middle" fill="#CA6F1E" font-size="10" font-weight="700">Lab 6: Multi-Tool Agent</text>
  <text x="445" y="362" text-anchor="middle" fill="#5D6D7E" font-size="8">3 tools, 1 agent, auto-route</text>

  <line x1="445" y1="372" x2="445" y2="394" stroke="#2E86C1" stroke-width="2" marker-end="url(#arrow)"/>

  <rect x="370" y="394" width="150" height="44" rx="7" fill="#EBF5FB" stroke="#2E86C1" stroke-width="1.2"/>
  <text x="445" y="411" text-anchor="middle" fill="#1B4F72" font-size="10" font-weight="700">Lab 7: Web Search</text>
  <text x="445" y="428" text-anchor="middle" fill="#5D6D7E" font-size="8">Tavily live search</text>

  <!-- ===== PHASE 4: Advanced SDK (Labs 8-10) ===== -->
  <rect x="750" y="458" width="210" height="50" rx="6" fill="#D4EFDF" stroke="#27AE60" stroke-width="1" stroke-dasharray="4"/>
  <text x="855" y="488" text-anchor="middle" fill="#1E8449" font-size="10" font-weight="600">Phase 4: Advanced SDK</text>

  <!-- Branch to 8, 9, 10 -->
  <line x1="445" y1="438" x2="220" y2="468" stroke="#2E86C1" stroke-width="2" marker-end="url(#arrow)"/>
  <line x1="445" y1="438" x2="445" y2="468" stroke="#2E86C1" stroke-width="2" marker-end="url(#arrow)"/>
  <line x1="445" y1="438" x2="660" y2="468" stroke="#2E86C1" stroke-width="2" marker-end="url(#arrow)"/>

  <rect x="135" y="468" width="170" height="44" rx="7" fill="#D5F5E3" stroke="#27AE60" stroke-width="1.2"/>
  <text x="220" y="485" text-anchor="middle" fill="#1E8449" font-size="10" font-weight="700">Lab 8: Observability</text>
  <text x="220" y="502" text-anchor="middle" fill="#5D6D7E" font-size="8">Tracing, metrics, monitoring</text>

  <rect x="360" y="468" width="170" height="44" rx="7" fill="#D5F5E3" stroke="#27AE60" stroke-width="1.2"/>
  <text x="445" y="485" text-anchor="middle" fill="#1E8449" font-size="10" font-weight="700">Lab 9: Streaming</text>
  <text x="445" y="502" text-anchor="middle" fill="#5D6D7E" font-size="8">Token-by-token UX</text>

  <rect x="575" y="468" width="170" height="44" rx="7" fill="#D5F5E3" stroke="#27AE60" stroke-width="1.2"/>
  <text x="660" y="485" text-anchor="middle" fill="#1E8449" font-size="10" font-weight="700">Lab 10: AI Search</text>
  <text x="660" y="502" text-anchor="middle" fill="#5D6D7E" font-size="8">Enterprise RAG</text>

  <!-- ===== PHASE 5: Deploy (Lab 11) ===== -->
  <rect x="750" y="538" width="210" height="50" rx="6" fill="#1B4F72" stroke="#1B4F72" stroke-width="1" stroke-dasharray="4"/>
  <text x="855" y="568" text-anchor="middle" fill="#fff" font-size="10" font-weight="600">Phase 5: Deploy</text>

  <!-- Merge to Lab 11 -->
  <line x1="220" y1="512" x2="445" y2="542" stroke="#2E86C1" stroke-width="2" marker-end="url(#arrow)"/>
  <line x1="445" y1="512" x2="445" y2="542" stroke="#2E86C1" stroke-width="2" marker-end="url(#arrow)"/>
  <line x1="660" y1="512" x2="445" y2="542" stroke="#2E86C1" stroke-width="2" marker-end="url(#arrow)"/>

  <rect x="350" y="542" width="190" height="50" rx="8" fill="#1B4F72" stroke="#1B4F72" stroke-width="1.5" filter="url(#shadow)"/>
  <text x="445" y="564" text-anchor="middle" fill="#fff" font-size="11" font-weight="700">Lab 11: FastAPI Deployment</text>
  <text x="445" y="582" text-anchor="middle" fill="#AED6F1" font-size="9">Web app + Azure App Service</text>

  <!-- ===== Tool Types Table ===== -->
  <rect x="40" y="616" width="920" height="155" rx="10" fill="#fff" stroke="#D5D8DC" stroke-width="1" filter="url(#shadow)"/>
  <text x="500" y="642" text-anchor="middle" fill="#1B4F72" font-size="14" font-weight="700">Tool Types Across Labs</text>
  <line x1="60" y1="652" x2="940" y2="652" stroke="#E8E8E8" stroke-width="1"/>

  <!-- Headers -->
  <text x="100" y="670" fill="#1B4F72" font-size="10" font-weight="600">Tool</text>
  <text x="300" y="670" fill="#1B4F72" font-size="10" font-weight="600">Labs</text>
  <text x="440" y="670" fill="#1B4F72" font-size="10" font-weight="600">Execution</text>
  <text x="660" y="670" fill="#1B4F72" font-size="10" font-weight="600">Insurance Use Case</text>

  <!-- Row 1 -->
  <rect x="60" y="678" width="16" height="16" rx="3" fill="#27AE60"/>
  <text x="100" y="691" fill="#5D6D7E" font-size="10">File Search (RAG)</text>
  <text x="300" y="691" fill="#5D6D7E" font-size="10">3, 6</text>
  <text x="440" y="691" fill="#5D6D7E" font-size="10">Server-side (automatic)</text>
  <text x="660" y="691" fill="#5D6D7E" font-size="10">Policy document Q and A</text>

  <!-- Row 2 -->
  <rect x="60" y="698" width="16" height="16" rx="3" fill="#8E44AD"/>
  <text x="100" y="711" fill="#5D6D7E" font-size="10">Code Interpreter</text>
  <text x="300" y="711" fill="#5D6D7E" font-size="10">4, 6</text>
  <text x="440" y="711" fill="#5D6D7E" font-size="10">Server-side (sandbox)</text>
  <text x="660" y="711" fill="#5D6D7E" font-size="10">Claims analytics, charts</text>

  <!-- Row 3 -->
  <rect x="60" y="718" width="16" height="16" rx="3" fill="#E67E22"/>
  <text x="100" y="731" fill="#5D6D7E" font-size="10">Custom Functions</text>
  <text x="300" y="731" fill="#5D6D7E" font-size="10">5, 6, 7</text>
  <text x="440" y="731" fill="#5D6D7E" font-size="10">Client-side (your code)</text>
  <text x="660" y="731" fill="#5D6D7E" font-size="10">Claim lookup, fraud risk, web search</text>

  <!-- Row 4 -->
  <rect x="60" y="738" width="16" height="16" rx="3" fill="#2E86C1"/>
  <text x="100" y="751" fill="#5D6D7E" font-size="10">Observability + Streaming + AI Search</text>
  <text x="300" y="751" fill="#5D6D7E" font-size="10">8, 9, 10</text>
  <text x="440" y="751" fill="#5D6D7E" font-size="10">Advanced SDK features</text>
  <text x="660" y="751" fill="#5D6D7E" font-size="10">Monitoring, real-time UX, enterprise KB</text>
</svg>
